# xmcd
#
# Track frame offsets:
# 150
# 13887
# 27628
# 41481
# 56378
# 71295
#
# Disc length: 1149 seconds
#
#
# Revision: 0
# Processed by: cddbd v1.5.1PL2 Copyright (c) Steve Scherf et al.
# Submitted via: FreeRIP 2.944 
#
DISCID=49047b06
DTITLE=Cannibal Ox - Cosmos
DYEAR=2003
DGENRE=Hip-Hop
TTITLE0=Cosmos [Main] f. Rob Swift
TTITLE1=Cosmos [Clean] f. Rob Swift
TTITLE2=Cosmos [Instrumental] f. Rob Swift
TTITLE3=Invisible Streets Be Testin' You [Main]
TTITLE4=Invisible Streets Be Testin' You [Clean]
TTITLE5=Invisible Streets Be Testin' You [Instrumental]
EXTD=
EXTT0=
EXTT1=
EXTT2=
EXTT3=
EXTT4=
EXTT5=
PLAYORDER=
